<?xml version="1.0" encoding="UTF-8"?>
<svg xmlns="http://www.w3.org/2000/svg" xmlns:xlink="http://www.w3.org/1999/xlink" width="1300" height="650">
<defs>
<polygon id="pt" points="-0.1624598481164531,0 0,-0.5 0.1624598481164531,0" transform="scale(0.0616)" fill="#FFF"/>
<g id="star">
	<use xlink:href="#pt" transform="rotate(-144)"/>
	<use xlink:href="#pt" transform="rotate(-72)"/>
	<use xlink:href="#pt"/>
	<use xlink:href="#pt" transform="rotate(72)"/>
	<use xlink:href="#pt" transform="rotate(144)"/>
</g>
<g id="s5">
	<use xlink:href="#star" x="-0.252"/>
	<use xlink:href="#star" x="-0.126"/>
	<use xlink:href="#star"/>
	<use xlink:href="#star" x="0.126"/>
	<use xlink:href="#star" x="0.252"/>
</g>
<g id="s6">
	<use xlink:href="#s5" x="-0.063"/>
	<use xlink:href="#star" x="0.315"/>
</g>
<g id="x4">
	<use xlink:href="#s6"/>
	<use xlink:href="#s5" y="0.054"/>
	<use xlink:href="#s6" y="0.108"/>
	<use xlink:href="#s5" y="0.162"/>
</g>
<g id="u">
	<use xlink:href="#x4" y="-0.216"/>
	<use xlink:href="#x4"/>
	<use xlink:href="#s6" y="0.216"/>
</g>
<rect id="stripe" width="1300" height="50" fill="#B22234"/>
</defs>
<rect width="1300" height="650" fill="#FFF"/>
<use xlink:href="#stripe"/>
<use xlink:href="#stripe" y="100"/>
<use xlink:href="#stripe" y="200"/>
<use xlink:href="#stripe" y="300"/>
<use xlink:href="#stripe" y="400"/>
<use xlink:href="#stripe" y="500"/>
<use xlink:href="#stripe" y="600"/>
<rect width="494" height="350" fill="#3C3B6E"/>
<use xlink:href="#u" transform="translate(247,175) scale(650)"/>
<svg viewBox="0 0 60 30" width="1300" height="650">
	<clipPath id="t">
		<path d="M30,15L60,30V15H0V30H30z"/>
	</clipPath>
	<clipPath id="uk">
		<path d="M0,30H60V0z"/>
	</clipPath>
	<g clip-path="url(#uk)">
		<path d="M0,0 v30 h60 v-30 z" fill="#00247d"/>
		<path d="M0,0 L60,30 M60,0 L0,30" stroke="#fff" stroke-width="6"/>
		<path d="M0,30 L30,15 L60,30" clip-path="url(#t)" fill="none" stroke="#cf142b" stroke-width="4"/>
		<path d="M30,0 v30 M0,15 h60" stroke="#fff" stroke-width="10"/>
		<path d="M30,0 v30 M0,15 h60" stroke="#cf142b" stroke-width="6"/>
	</g>
</svg>
<path transform="translate(150,75)" fill="#ff0000" d="m 499.99228,46.875 -34.11312,63.62529 c -3.87086,6.91501 -10.80627,6.27363 -17.74169,2.41138 l -24.69699,-12.78858 18.40705,97.72711 c 3.87086,17.85419 -8.54859,17.85419 -14.67765,10.13435 l -43.10105,-48.25099 -6.99738,24.503 c -0.80692,3.21777 -4.35481,6.59744 -9.67748,5.79261 l -54.50177,-11.45912 14.31524,52.04475 c 3.06451,11.58054 5.4549,16.37528 -3.09375,19.42959 l -19.42619,9.13025 93.82127,76.20838 c 3.7135,2.88151 5.58971,8.067 4.26768,12.7621 l -8.21136,26.94707 c 32.30405,-3.72371 61.24898,-9.32594 93.56939,-12.77619 2.85323,-0.30459 7.62988,4.40408 7.61029,7.71058 l -4.28024,98.72342 15.70639,0 -2.47237,-98.5117 c -0.0197,-3.3065 4.31372,-8.22689 7.16695,-7.9223 32.32041,3.45026 61.26538,9.05248 93.56942,12.77619 l -8.21134,-26.94707 c -1.32203,-4.6951 0.55417,-9.88059 4.26767,-12.7621 l 93.82125,-76.20838 -19.42617,-9.13025 c -8.54867,-3.05431 -6.15828,-7.84905 -3.09377,-19.42959 l 14.31527,-52.04475 -54.5018,11.45912 c -5.32267,0.80483 -8.87056,-2.57484 -9.6775,-5.79261 l -6.99737,-24.503 -43.10103,48.25099 c -6.12908,7.71984 -18.54854,7.71984 -14.67768,-10.13435 l 18.40702,-97.72711 -24.69694,12.78858 c -6.93559,3.86225 -13.87083,4.50363 -17.7417,-2.41138"/>
</svg>